<svg width="1200" height="630" viewBox="0 0 1200 630" fill="none" xmlns="http://www.w3.org/2000/svg">
  <rect width="1200" height="630" fill="#FBFAF7"/>
  <circle cx="1050" cy="80" r="420" fill="#F5B301" fill-opacity="0.12"/>
  <circle cx="120" cy="560" r="300" fill="#F5B301" fill-opacity="0.08"/>
  <!-- mark -->
  <g transform="translate(96,150)">
    <rect x="1" y="1" width="104" height="104" rx="26" fill="#14130F"/>
    <path d="M40 46v-8a14 14 0 0 1 28 0V46" stroke="#F5B301" stroke-width="7.5" stroke-linecap="round"/>
    <path d="M54 28a14 14 0 0 0-14 14" stroke="#FFFFFF" stroke-width="7.5" stroke-linecap="round" opacity="0.9"/>
    <rect x="27" y="46" width="54" height="40" rx="10" fill="#F5B301"/>
    <circle cx="54" cy="63" r="6.2" fill="#14130F"/>
    <rect x="51.2" y="65" width="5.6" height="11" rx="2.8" fill="#14130F"/>
  </g>
  <text x="220" y="232" font-family="'IBM Plex Sans', sans-serif" font-size="60" font-weight="700" fill="#14130F">Link<tspan fill="#E09400">Lock</tspan></text>
  <text x="222" y="266" font-family="'IBM Plex Mono', monospace" font-size="18" letter-spacing="5" fill="#6B6659">ESCROW · NEVER HELD</text>

  <text x="96" y="380" font-family="'IBM Plex Sans', sans-serif" font-size="72" font-weight="700" fill="#14130F">Escrow at the speed</text>
  <text x="96" y="462" font-family="'IBM Plex Sans', sans-serif" font-size="72" font-weight="700" fill="#14130F">of a <tspan fill="#E09400">transfer</tspan>.</text>
  <text x="96" y="536" font-family="'IBM Plex Sans', sans-serif" font-size="30" fill="#6B6659">Zero signup. A locked, isolated bank account per order. Powered by Monnify.</text>
</svg>
